<?xml version="1.0" encoding="utf-8"?>
<!-- Generator: Adobe Illustrator 18.0.0, SVG Export Plug-In . SVG Version: 6.00 Build 0)  -->
<!DOCTYPE svg PUBLIC "-//W3C//DTD SVG 1.1//EN" "http://www.w3.org/Graphics/SVG/1.1/DTD/svg11.dtd">
<svg version="1.1" id="Laag_1" xmlns="http://www.w3.org/2000/svg" xmlns:xlink="http://www.w3.org/1999/xlink" x="0px" y="0px"
	 viewBox="336.6 22 517.4 797.9" enable-background="new 336.6 22 517.4 797.9" xml:space="preserve">
<g>
	<g>
		<path fill="#352E4E" d="M368.5,805.7c-0.1-0.1-0.1-0.3-0.2-0.3c-13.9-3.2-21.8-14.2-21.5-30.4c0.5-21,0.1-42,0.1-63
			c0-5.5,0-5.5,5.6-5.5c129.1,0,258.3,0,387.4,0c5.7,0,4.9,0.7,5-5c0-9.8-0.1-19.5,0.1-29.3c0-2.4-0.5-3.3-3.1-3.2
			c-4.7,0.2-9.5,0.1-14.2,0.1c-125.4,0-250.8,0-376.2,0.1c-3.8,0-4.7-0.9-4.7-4.7c0.1-75.5,0.1-151,0-226.5c0-3.5,0.7-4.6,4.4-4.6
			c162.6,0.1,325.3,0.1,487.9,0c3.8,0,4.4,1.1,4.4,4.6c-0.1,30-0.1,60-0.1,90c0,6,0.7,5.2-5.1,5.2c-129,0-258,0-387,0
			c-5.8,0-5-0.8-5,4.9c0,9.6,0,19.3-0.1,28.9c0,2.2,0.6,3.3,2.9,3c1-0.1,2,0,3,0c128.8,0,257.5,0,386.3,0c5.7,0,5-0.8,5,4.9
			c0,65.9-0.3,131.8,0.2,197.6c0.1,16.5-4.9,28.1-21.4,33.1C671.1,805.7,519.8,805.7,368.5,805.7z M595.4,776.8
			c71.4,0,142.8,0,214.1,0c5.2,0,5.2,0,5.2-5.1c0-56,0-112,0-168c0-5.6,0.8-4.9-5-4.9c-129.1,0-258.3,0-387.4,0
			c-5.1,0-5.1,0-5.1-4.9c0-28.4,0.1-56.8-0.1-85.1c0-3.9,1-4.6,4.7-4.6c129,0.1,258,0.1,387,0.1c1,0,2-0.1,3,0
			c2.4,0.3,2.9-0.7,2.9-2.9c-0.1-11.6-0.2-23.3,0-34.9c0.1-3.5-1-4.2-4.3-4.2c-143.4,0.1-286.8,0.1-430.1,0c-3.5,0-4.6,0.7-4.5,4.4
			c0.1,56.3,0.1,112.5,0.1,168.8c0,5.6-0.9,5,4.9,5c129.5,0,259,0,388.5-0.1c3.3,0,4.4,0.6,4.4,4.2c-0.2,28.6-0.2,57.3,0,85.9
			c0,3.8-0.7,4.9-4.8,4.9c-105.8-0.1-211.5-0.1-317.3-0.1c-24,0-48,0.1-72-0.1c-3.2,0-3.9,0.9-3.9,3.9c0.2,11,0.3,22,0,33
			c-0.1,3.8,0.9,4.7,4.7,4.7C452.2,776.7,523.8,776.8,595.4,776.8z"/>
		<path fill="#352E4E" d="M681.3,37.6c5,1.7,9.7,3.7,13.5,7.5c6.1,6.2,8.7,13.7,8.7,22.4c-0.1,28.1,0,56.3,0,84.4
			c0,5.7-0.6,4.9,5.1,4.9c35.9,0,71.8,0.3,107.6-0.1c15.7-0.2,28.1,11.8,28,27.9c-0.3,69.1-0.2,138.3,0,207.4c0,3.5-1,4.2-4.3,4.2
			c-77.1-0.1-154.3-0.1-231.4,0c-3.8,0-4.4-1.2-4.4-4.6c0.1-116.4,0.1-232.8,0.1-349.2c0-1.6-0.1-3.2-0.1-4.9
			C629.8,37.6,655.6,37.6,681.3,37.6z M633.2,216.9c0,48.8,0,97.5-0.1,146.3c0,3.4,0.9,4.3,4.3,4.3c57.9-0.1,115.8-0.1,173.6,0
			c3.4,0,4.4-0.8,4.4-4.3c-0.1-57.8-0.1-115.5,0-173.3c0-3.4-0.8-4.4-4.3-4.4c-44.1,0.1-88.3,0-132.4,0.2c-3.4,0-4.3-0.8-4.3-4.3
			c0.1-36.9,0-73.8,0.2-110.6c0-3.7-1.1-4.5-4.6-4.4c-10.9,0.2-21.8,0.2-32.6,0c-3.4-0.1-4.3,0.9-4.3,4.3
			C633.3,119.4,633.2,168.2,633.2,216.9z"/>
		<path fill="#352E4E" d="M457.1,396.2c-35.4,0-70.7,0-106.1,0.1c-3.3,0-4.1-0.8-4.1-4.1C347,323,347,253.9,347,184.8
			c0-17,10.9-28,27.8-28c62.7,0,125.5,0,188.2-0.1c3.2,0,4.2,0.6,4.2,4c-0.2,30.2-0.1,60.5,0,90.7c0,3.1-0.9,4-4,3.9
			c-37.5-0.1-75,0-112.5-0.2c-3.7,0-4.5,1.1-4.4,4.6c0.2,10.7,0.1,21.5,0.1,32.2c0,5.5-0.6,4.9,4.7,4.9c37.2,0,74.5,0.1,111.7-0.1
			c3.3,0,4.4,0.7,4.4,4.3c-0.2,30.4-0.1,60.7,0,91.1c0,3.1-0.9,3.9-3.9,3.9C527.9,396.1,492.5,396.2,457.1,396.2z M376,276.6
			c0,29.2,0,58.5,0,87.7c0,2.3,0.1,3.5,3.1,3.5c52-0.1,104-0.1,156,0c2.4,0,3.2-0.6,3.2-3.1c-0.1-11.4-0.2-22.7,0-34.1
			c0.1-3.4-0.8-4.3-4.3-4.3c-37.4,0.1-74.7,0-112.1,0.2c-3.5,0-4.6-0.7-4.6-4.4c0.2-30.1,0.2-60.2,0-90.4c0-3.5,0.7-4.6,4.4-4.6
			c37.5,0.2,75,0.1,112.5,0.2c3,0,4.1-0.6,4-3.8c-0.2-11.4-0.2-22.7,0-34.1c0.1-3.3-1.1-3.8-4-3.8c-51.4,0.1-102.7,0.1-154.1,0
			c-3.3,0-4.2,0.7-4.2,4.1C376,218.6,376,247.6,376,276.6z"/>
		<path fill="#352E4E" d="M723.5,325.8c-15.2,0-30.5-0.1-45.7,0.1c-2.8,0-3.9-0.5-3.8-3.6c0.1-30.7,0.1-61.5,0-92.2
			c0-2.5,0.6-3.4,3.3-3.4c31,0.1,62,0.1,93,0c2.7,0,3.3,0.9,3.3,3.4c-0.1,30.7-0.1,61.5,0,92.2c0,3.2-1.1,3.6-3.9,3.6
			C754.2,325.7,738.8,325.8,723.5,325.8z M744.4,276.5c0-6.1-0.1-12.2,0-18.4c0-2.1-0.6-2.8-2.8-2.8c-12,0.1-24,0.1-36,0
			c-1.8,0-2.7,0.3-2.7,2.4c0.1,12.2,0.1,24.5,0,36.7c0,1.9,0.6,2.6,2.6,2.6c12.1-0.1,24.2-0.1,36.3,0c2,0,2.5-0.7,2.5-2.6
			C744.3,288.5,744.4,282.5,744.4,276.5z"/>
	</g>
</g>
</svg>
